<?xml version="1.0" encoding="utf-8"?>
<!-- Generator: Adobe Illustrator 22.0.0, SVG Export Plug-In . SVG Version: 6.00 Build 0)  -->
<svg version="1.1" id="Capa_1" xmlns="http://www.w3.org/2000/svg" xmlns:xlink="http://www.w3.org/1999/xlink" x="0px" y="0px"
	 viewBox="0 0 250 250" style="enable-background:new 0 0 250 250;" xml:space="preserve">
<style type="text/css">
	.st0{fill:#010002;}
	.st1{fill:none;stroke:#010002;stroke-width:5.4323;stroke-miterlimit:10;}
</style>
<g>
	<g>
		<path class="st0" d="M154.9,100.1h-10l-10-10H115l-10,10h-10c0,0-10,0-10,10v29.9c0,10,10,10,10,10s14.1,0,28.7,0
			c4,6,10.9,10,18.6,10c9.6,0,17.8-6.1,21-14.7c1.4-2.6,1.4-5.3,1.4-5.3s0-19.9,0-29.9S154.9,100.1,154.9,100.1z M120.1,139.1
			c-5.8-2-10-7.6-10-14.1c0-8.2,6.7-14.9,14.9-14.9c4.8,0,9,2.3,11.7,5.7c-9.6,2.5-16.7,11.2-16.7,21.6
			C120,138,120.1,138.5,120.1,139.1z M142.4,154.6c-9.5,0-17.1-7.7-17.1-17.1c0-9.5,7.7-17.1,17.1-17.1c9.5,0,17.1,7.7,17.1,17.1
			C159.5,146.9,151.9,154.6,142.4,154.6z"/>
		<polygon class="st0" points="144.9,125 139.9,125 139.9,135 130,135 130,139.9 139.9,139.9 139.9,149.9 144.9,149.9 144.9,139.9 
			154.9,139.9 154.9,135 144.9,135 		"/>
	</g>
</g>
<path class="st1" d="M219.4,238.2H30.6c-10.4,0-18.8-8.4-18.8-18.8V30.6c0-10.4,8.4-18.8,18.8-18.8h188.8c10.4,0,18.8,8.4,18.8,18.8
	v188.8C238.2,229.8,229.8,238.2,219.4,238.2z"/>
</svg>
